<svg width="276.37999267578124px" height="125.15999755859374px" xmlns="http://www.w3.org/2000/svg" viewBox="111.81000366210938 12.420001220703128 276.37999267578124 125.15999755859374" style="background: none;" preserveAspectRatio="xMidYMid"><defs><linearGradient id="editing-gradient-gradient" x1="0" x2="1" y1="0.5" y2="0.5" gradientUnits="objectBoundingBox"><stop offset="0" stop-color="#380b08"></stop><stop offset="1" stop-color="#380b08"></stop></linearGradient></defs><g><g transform="translate(155.08999061584473, 98.79500007629395)"><path d="M10.24-23.49L10.24-7.81L10.24-7.81Q11.81-5.70 13.68-4.83L13.68-4.83L13.68-4.83Q15.55-3.97 17.79-3.97L17.79-3.97L17.79-3.97Q22.37-3.97 24.80-7.20L24.80-7.20L24.80-7.20Q27.23-10.43 27.23-16.83L27.23-16.83L27.23-16.83Q27.23-22.78 25.07-25.58L25.07-25.58L25.07-25.58Q22.91-28.38 18.91-28.38L18.91-28.38L18.91-28.38Q16.13-28.38 14.06-27.10L14.06-27.10L14.06-27.10Q12-25.82 10.24-23.49L10.24-23.49ZM10.24-47.14L10.24-27.74L10.24-27.74Q12.29-30.11 14.86-31.52L14.86-31.52L14.86-31.52Q17.44-32.93 20.80-32.93L20.80-32.93L20.80-32.93Q23.65-32.93 25.94-31.84L25.94-31.84L25.94-31.84Q28.22-30.75 29.82-28.69L29.82-28.69L29.82-28.69Q31.42-26.62 32.27-23.68L32.27-23.68L32.27-23.68Q33.12-20.74 33.12-17.06L33.12-17.06L33.12-17.06Q33.12-13.12 32.16-9.89L32.16-9.89L32.16-9.89Q31.20-6.66 29.39-4.37L29.39-4.37L29.39-4.37Q27.58-2.08 24.99-0.82L24.99-0.82L24.99-0.82Q22.40 0.45 19.17 0.45L19.17 0.45L19.17 0.45Q15.97 0.45 13.78-0.75L13.78-0.75L13.78-0.75Q11.58-1.95 9.95-4.16L9.95-4.16L9.66-1.22L9.66-1.22Q9.41 0 8.19 0L8.19 0L4.51 0L4.51-47.14L10.24-47.14ZM44.32-19.74L62.05-19.74L62.05-19.74Q62.05-21.73 61.49-23.38L61.49-23.38L61.49-23.38Q60.93-25.02 59.86-26.22L59.86-26.22L59.86-26.22Q58.78-27.42 57.25-28.08L57.25-28.08L57.25-28.08Q55.71-28.74 53.76-28.74L53.76-28.74L53.76-28.74Q49.66-28.74 47.28-26.35L47.28-26.35L47.28-26.35Q44.90-23.97 44.32-19.74L44.32-19.74ZM65.06-6.62L66.66-4.54L66.66-4.54Q65.60-3.26 64.13-2.32L64.13-2.32L64.13-2.32Q62.66-1.38 60.98-0.77L60.98-0.77L60.98-0.77Q59.30-0.16 57.50 0.14L57.50 0.14L57.50 0.14Q55.71 0.45 53.95 0.45L53.95 0.45L53.95 0.45Q50.59 0.45 47.76-0.69L47.76-0.69L47.76-0.69Q44.93-1.82 42.86-4.02L42.86-4.02L42.86-4.02Q40.80-6.21 39.65-9.44L39.65-9.44L39.65-9.44Q38.50-12.67 38.50-16.86L38.50-16.86L38.50-16.86Q38.50-20.26 39.54-23.20L39.54-23.20L39.54-23.20Q40.58-26.14 42.53-28.30L42.53-28.30L42.53-28.30Q44.48-30.46 47.30-31.70L47.30-31.70L47.30-31.70Q50.11-32.93 53.63-32.93L53.63-32.93L53.63-32.93Q56.54-32.93 59.02-31.95L59.02-31.95L59.02-31.95Q61.50-30.98 63.31-29.14L63.31-29.14L63.31-29.14Q65.12-27.30 66.14-24.59L66.14-24.59L66.14-24.59Q67.17-21.89 67.17-18.43L67.17-18.43L67.17-18.43Q67.17-17.09 66.88-16.64L66.88-16.64L66.88-16.64Q66.59-16.19 65.79-16.19L65.79-16.19L44.13-16.19L44.13-16.19Q44.22-13.12 44.98-10.85L44.98-10.85L44.98-10.85Q45.73-8.58 47.07-7.06L47.07-7.06L47.07-7.06Q48.42-5.54 50.27-4.78L50.27-4.78L50.27-4.78Q52.13-4.03 54.43-4.03L54.43-4.03L54.43-4.03Q56.58-4.03 58.13-4.53L58.13-4.53L58.13-4.53Q59.68-5.02 60.80-5.60L60.80-5.60L60.80-5.60Q61.92-6.18 62.67-6.67L62.67-6.67L62.67-6.67Q63.42-7.17 63.97-7.17L63.97-7.17L63.97-7.17Q64.67-7.17 65.06-6.62L65.06-6.62ZM74.46-32.42L80.16-32.42L80.16 0L74.46 0L74.46-32.42ZM81.38-42.59L81.38-42.59L81.38-42.59Q81.38-41.76 81.04-41.04L81.04-41.04L81.04-41.04Q80.70-40.32 80.14-39.76L80.14-39.76L80.14-39.76Q79.58-39.20 78.83-38.88L78.83-38.88L78.83-38.88Q78.08-38.56 77.25-38.56L77.25-38.56L77.25-38.56Q76.42-38.56 75.70-38.88L75.70-38.88L75.70-38.88Q74.98-39.20 74.43-39.76L74.43-39.76L74.43-39.76Q73.89-40.32 73.57-41.04L73.57-41.04L73.57-41.04Q73.25-41.76 73.25-42.59L73.25-42.59L73.25-42.59Q73.25-43.42 73.57-44.18L73.57-44.18L73.57-44.18Q73.89-44.93 74.43-45.49L74.43-45.49L74.43-45.49Q74.98-46.05 75.70-46.37L75.70-46.37L75.70-46.37Q76.42-46.69 77.25-46.69L77.25-46.69L77.25-46.69Q78.08-46.69 78.83-46.37L78.83-46.37L78.83-46.37Q79.58-46.05 80.14-45.49L80.14-45.49L80.14-45.49Q80.70-44.93 81.04-44.18L81.04-44.18L81.04-44.18Q81.38-43.42 81.38-42.59ZM89.50-47.14L95.23-47.14L95.23-19.39L96.70-19.39L96.70-19.39Q97.34-19.39 97.78-19.57L97.78-19.57L97.78-19.57Q98.21-19.74 98.69-20.29L98.69-20.29L108.93-31.26L108.93-31.26Q109.38-31.81 109.87-32.11L109.87-32.11L109.87-32.11Q110.37-32.42 111.20-32.42L111.20-32.42L116.35-32.42L104.42-19.71L104.42-19.71Q103.55-18.62 102.56-18.02L102.56-18.02L102.56-18.02Q103.14-17.63 103.60-17.14L103.60-17.14L103.60-17.14Q104.06-16.64 104.48-16L104.48-16L117.15 0L112.06 0L112.06 0Q111.33 0 110.80-0.24L110.80-0.24L110.80-0.24Q110.27-0.48 109.89-1.12L109.89-1.12L99.23-14.40L99.23-14.40Q98.75-15.07 98.29-15.28L98.29-15.28L98.29-15.28Q97.82-15.49 96.86-15.49L96.86-15.49L95.23-15.49L95.23 0L89.50 0L89.50-47.14ZM135.68-32.93L135.68-32.93L135.68-32.93Q139.23-32.93 142.08-31.74L142.08-31.74L142.08-31.74Q144.93-30.56 146.94-28.38L146.94-28.38L146.94-28.38Q148.96-26.21 150.03-23.12L150.03-23.12L150.03-23.12Q151.10-20.03 151.10-16.22L151.10-16.22L151.10-16.22Q151.10-12.38 150.03-9.31L150.03-9.31L150.03-9.31Q148.96-6.24 146.94-4.06L146.94-4.06L146.94-4.06Q144.93-1.89 142.08-0.72L142.08-0.72L142.08-0.72Q139.23 0.45 135.68 0.45L135.68 0.45L135.68 0.45Q132.10 0.45 129.23-0.72L129.23-0.72L129.23-0.72Q126.37-1.89 124.35-4.06L124.35-4.06L124.35-4.06Q122.34-6.24 121.26-9.31L121.26-9.31L121.26-9.31Q120.19-12.38 120.19-16.22L120.19-16.22L120.19-16.22Q120.19-20.03 121.26-23.12L121.26-23.12L121.26-23.12Q122.34-26.21 124.35-28.38L124.35-28.38L124.35-28.38Q126.37-30.56 129.23-31.74L129.23-31.74L129.23-31.74Q132.10-32.93 135.68-32.93ZM135.68-4L135.68-4L135.68-4Q140.48-4 142.85-7.22L142.85-7.22L142.85-7.22Q145.22-10.43 145.22-16.19L145.22-16.19L145.22-16.19Q145.22-21.98 142.85-25.22L142.85-25.22L142.85-25.22Q140.48-28.45 135.68-28.45L135.68-28.45L135.68-28.45Q133.25-28.45 131.44-27.62L131.44-27.62L131.44-27.62Q129.63-26.78 128.43-25.22L128.43-25.22L128.43-25.22Q127.23-23.65 126.64-21.36L126.64-21.36L126.64-21.36Q126.05-19.07 126.05-16.19L126.05-16.19L126.05-16.19Q126.05-10.43 128.43-7.22L128.43-7.22L128.43-7.22Q130.82-4 135.68-4ZM163.23-31.23L163.68-27.71L163.68-27.71Q164.74-28.90 165.92-29.86L165.92-29.86L165.92-29.86Q167.10-30.82 168.43-31.50L168.43-31.50L168.43-31.50Q169.76-32.19 171.25-32.56L171.25-32.56L171.25-32.56Q172.74-32.93 174.46-32.93L174.46-32.93L174.46-32.93Q177.12-32.93 179.15-32.05L179.15-32.05L179.15-32.05Q181.18-31.17 182.54-29.55L182.54-29.55L182.54-29.55Q183.90-27.94 184.61-25.66L184.61-25.66L184.61-25.66Q185.31-23.39 185.31-20.64L185.31-20.64L185.31 0L179.58 0L179.58-20.64L179.58-20.64Q179.58-24.32 177.90-26.35L177.90-26.35L177.90-26.35Q176.22-28.38 172.80-28.38L172.80-28.38L172.80-28.38Q170.27-28.38 168.08-27.17L168.08-27.17L168.08-27.17Q165.89-25.95 164.03-23.87L164.03-23.87L164.03 0L158.30 0L158.30-32.42L161.73-32.42L161.73-32.42Q162.94-32.42 163.23-31.23L163.23-31.23Z" fill="url(#editing-gradient-gradient)"></path></g></g><style>text {
  font-size: 64px;
  font-family: Arial Black;
  dominant-baseline: central;
  text-anchor: middle;
}</style></svg>